{"title":"Maša ja karu Külas muinasjutul 2016 Eesti keeles","uid":15735890,"size":3536394462,"categoryP":"video","categoryS":"movie_clips","magnet":"?xt=urn:btih:c74f0031a4c9130668e251ff3df0bb41cba016c2&amp;dn=Ma%26scaron%3Ba+ja+karu+K%26uuml%3Blas+muinasjutul+2016+Eesti+keeles&amp;tr=udp%3A%2F%2Ftracker.leechers-paradise.org%3A6969&amp;tr=udp%3A%2F%2Fzer0day.ch%3A1337&amp;tr=udp%3A%2F%2Fopen.demonii.com%3A1337&amp;tr=udp%3A%2F%2Ftracker.coppersurfer.tk%3A6969&amp;tr=udp%3A%2F%2Fexodus.desync.com%3A6969","seeders":8,"leechers":0,"uploader":"immri","files":1,"time":1472838417,"description":"\nFormat : Matroska \r\nFormat version : Version 2 \r\nFile size : 3.29 GiB \r\nDuration : 1h 5mn \r\nOverall bit rate mode : Variable \r\nOverall bit rate : 7 217 Kbps \r\nEncoded date : UTC 2016-09-02 14:51:07 \r\nWriting application : MakeMKV v1.10.0 win(x64-release) \r\nWriting library : libmakemkv v1.10.0 (1.3.3/1.4.4) win(x64-release) \r\nOriginal source medium : DVD-Video \r\n\r\nVideo \r\nID : 1 \r\nID in the original source medium : 224 (0xE0) \r\nFormat : MPEG Video \r\nFormat version : Version 2 \r\nFormat profile :    \r\nFormat settings, BVOP : Yes \r\nFormat settings, Matrix : Default \r\nFormat settings, GOP : M=3, N=12 \r\nFormat settings, picture structure : Frame \r\nCodec ID : V_MPEG2 \r\nCodec ID/Info : MPEG 1 or 2 Video \r\nDuration : 1h 5mn \r\nBit rate mode : Variable \r\nBit rate : 7 020 Kbps \r\nWidth : 720 pixels \r\nHeight : 576 pixels \r\nDisplay aspect ratio : 16:9 \r\nFrame rate mode : Constant \r\nFrame rate : 25.000 fps \r\nStandard : PAL \r\nColor space : YUV \r\nChroma subsampling : 4:2:0 \r\nBit depth : 8 bits \r\nScan type : Interlaced \r\nScan order : Bottom Field First \r\nCompression mode : Lossy \r\nBits/(Pixel*Frame) : 0.677 \r\nTime code of first frame : 00:00:00:00 \r\nTime code source : Group of pictures header \r\nGOP, Open/Closed : Closed \r\nStream size : 3.20 GiB (97%) \r\nDefault : No \r\nForced : No \r\n\r\nAudio \r\nID : 2 \r\nID in the original source medium : 189 (0xBD)-129 (0x81) \r\nFormat : AC-3 \r\nFormat/Info : Audio Coding 3 \r\nMode extension : CM (complete main) \r\nFormat settings, Endianness : Big \r\nCodec ID : A_AC3 \r\nDuration : 1h 5mn \r\nBit rate mode : Constant \r\nBit rate : 192 Kbps \r\nChannel(s) : 2 channels \r\nChannel positions : Front: L R \r\nSampling rate : 48.0 KHz \r\nFrame rate : 31.250 fps (1536 spf) \r\nCompression mode : Lossy \r\nStream size : 89.7 MiB (3%) \r\nTitle : Stereo \r\nLanguage : Estonian \r\nDefault : Yes","torrent":{"xt":"urn:btih:c74f0031a4c9130668e251ff3df0bb41cba016c2","amp;dn":"Ma%26scaron%3Ba+ja+karu+K%26uuml%3Blas+muinasjutul+2016+Eesti+keeles","amp;tr":["udp%3A%2F%2Ftracker.leechers-paradise.org%3A6969","udp%3A%2F%2Fzer0day.ch%3A1337","udp%3A%2F%2Fopen.demonii.com%3A1337","udp%3A%2F%2Ftracker.coppersurfer.tk%3A6969","udp%3A%2F%2Fexodus.desync.com%3A6969"],"infoHash":"c74f0031a4c9130668e251ff3df0bb41cba016c2","infoHashBuffer":{"type":"Buffer","data":[199,79,0,49,164,201,19,6,104,226,81,255,61,240,187,65,203,160,22,194]},"announce":[],"urlList":[]}}